<svg width="12" height="9" viewBox="0 0 12 9" fill="none" xmlns="http://www.w3.org/2000/svg">
<path d="M1.00997 4.4049C0.975518 4.30135 0.975518 4.18944 1.00997 4.0859C1.70239 2.00265 3.66782 0.5 5.9842 0.5C8.29958 0.5 10.264 2.00115 10.9579 4.0834C10.9929 4.18674 10.9929 4.29856 10.9579 4.4024C10.266 6.48565 8.30058 7.9883 5.9842 7.9883C3.66881 7.9883 1.70389 6.48714 1.00997 4.4049Z" stroke="white" stroke-linecap="round" stroke-linejoin="round"/>
<path d="M7.48189 4.24418C7.48189 4.64138 7.3241 5.02232 7.04324 5.30319C6.76237 5.58405 6.38144 5.74184 5.98423 5.74184C5.58703 5.74184 5.20609 5.58405 4.92523 5.30319C4.64436 5.02232 4.48657 4.64138 4.48657 4.24418C4.48657 3.84698 4.64436 3.46604 4.92523 3.18518C5.20609 2.90431 5.58703 2.74652 5.98423 2.74652C6.38144 2.74652 6.76237 2.90431 7.04324 3.18518C7.3241 3.46604 7.48189 3.84698 7.48189 4.24418Z" stroke="white" stroke-linecap="round" stroke-linejoin="round"/>
</svg>
