<svg width="12" height="12" viewBox="0 0 12 12" fill="none" xmlns="http://www.w3.org/2000/svg">
<path d="M11.3965 6.88014C11.3089 7.82782 10.9532 8.73096 10.3711 9.48388C9.78898 10.2368 9.00446 10.8084 8.10935 11.1317C7.21423 11.455 6.24555 11.5167 5.31664 11.3096C4.38774 11.1025 3.53703 10.6351 2.86406 9.96211C2.1911 9.28914 1.72371 8.43843 1.51659 7.50953C1.30946 6.58062 1.37117 5.61194 1.69449 4.71683C2.01781 3.82171 2.58937 3.03719 3.34229 2.45506C4.09522 1.87293 4.99835 1.51727 5.94603 1.42969C5.3912 2.18032 5.12421 3.10516 5.19362 4.036C5.26304 4.96685 5.66425 5.84186 6.32428 6.50189C6.98431 7.16192 7.85933 7.56313 8.79017 7.63255C9.72101 7.70197 10.6459 7.43498 11.3965 6.88014Z" stroke="white" stroke-linecap="round" stroke-linejoin="round"/>
</svg>
