<svg width="13" height="12" viewBox="0 0 13 12" fill="none" xmlns="http://www.w3.org/2000/svg">
<path d="M11.2176 8.20573C11.3632 7.86207 11.4213 7.48769 11.3868 7.11607C11.3523 6.74445 11.2263 6.38716 11.02 6.07614C10.8137 5.76512 10.5336 5.51007 10.2046 5.33378C9.87565 5.15748 9.50814 5.06544 9.13492 5.06588H8.56568C8.38127 4.33965 7.9757 3.68868 7.40509 3.20305C6.83447 2.71743 6.12704 2.42115 5.38066 2.35522M3.26182 2.807C2.55618 3.19717 2.00128 3.81211 1.68539 4.55398C1.3695 5.29585 1.31076 6.12205 1.51852 6.90116C1.72628 7.68026 2.18861 8.36751 2.83195 8.85358C3.4753 9.33966 4.26271 9.59664 5.06893 9.58365H9.13492C9.39685 9.58334 9.65673 9.53748 9.90294 9.44812" stroke="white" stroke-width="1" stroke-linecap="round" stroke-linejoin="round"/>
<path d="M1.45459 1L11.3937 10.9391" stroke="white" stroke-width="1" stroke-linecap="round" stroke-linejoin="round"/>
</svg>
