<svg width="12" height="11" viewBox="0 0 12 11" fill="none" xmlns="http://www.w3.org/2000/svg">
<path d="M1.95042 3.59451C1.4857 4.143 1.13964 4.78183 0.934082 5.47072C1.57588 7.6256 3.5718 9.19631 5.93433 9.19631C6.4276 9.19631 6.90448 9.12776 7.35651 9.0001M3.06711 2.6035C3.91786 2.0421 4.91505 1.74357 5.93433 1.74512C8.29686 1.74512 10.2923 3.31583 10.9341 5.46972C10.5824 6.64668 9.82735 7.66216 8.80155 8.33794M3.06711 2.6035L1.46361 1M3.06711 2.6035L4.88023 4.41662M8.80155 8.33794L10.405 9.94143M8.80155 8.33794L6.98843 6.52481C7.12682 6.38642 7.2366 6.22212 7.3115 6.0413C7.38639 5.86048 7.42494 5.66668 7.42494 5.47096C7.42494 5.27525 7.38639 5.08145 7.3115 4.90063C7.2366 4.71981 7.12682 4.55551 6.98843 4.41712C6.85003 4.27872 6.68574 4.16894 6.50492 4.09405C6.3241 4.01915 6.1303 3.9806 5.93458 3.9806C5.73886 3.9806 5.54506 4.01915 5.36424 4.09405C5.18342 4.16894 5.01912 4.27872 4.88073 4.41712M6.98793 6.52432L4.88123 4.41761" stroke="white" stroke-linecap="round" stroke-linejoin="round"/>
</svg>
