<svg width="10" height="10" viewBox="0 0 10 10" fill="none" xmlns="http://www.w3.org/2000/svg">
<path d="M7.18231 4.2729H6.72425C6.58824 3.74613 6.30721 3.26808 5.91307 2.89306C5.51894 2.51803 5.02752 2.26108 4.49465 2.1514C3.96178 2.04171 3.40882 2.08369 2.89862 2.27257C2.38842 2.46144 1.94142 2.78964 1.60842 3.21987C1.27543 3.6501 1.06978 4.1651 1.01486 4.70637C0.959936 5.24763 1.05793 5.79345 1.29772 6.2818C1.5375 6.77015 1.90946 7.18145 2.37132 7.46897C2.83318 7.75648 3.36643 7.90868 3.91047 7.90828H7.18231C7.66439 7.90828 8.12673 7.71677 8.46761 7.37589C8.80849 7.03501 9 6.57267 9 6.09059C9 5.60851 8.80849 5.14617 8.46761 4.80529C8.12673 4.46441 7.66439 4.2729 7.18231 4.2729Z" stroke="white" stroke-linecap="round" stroke-linejoin="round"/>
</svg>
