<svg width="21" height="25" viewBox="0 0 21 25" fill="none" xmlns="http://www.w3.org/2000/svg">
<path fill-rule="evenodd" clip-rule="evenodd" d="M10.3965 23.689C10.3965 23.689 19.3965 17.689 19.3965 10.689C19.3965 8.30202 18.4483 6.01283 16.7604 4.325C15.0726 2.63718 12.7834 1.68896 10.3965 1.68896C8.00954 1.68896 5.72035 2.63718 4.03252 4.325C2.3447 6.01283 1.39648 8.30202 1.39648 10.689C1.39648 17.689 10.3965 23.689 10.3965 23.689ZM13.3965 10.689C13.3965 12.3458 12.0533 13.689 10.3965 13.689C8.73963 13.689 7.39648 12.3458 7.39648 10.689C7.39648 9.03211 8.73963 7.68896 10.3965 7.68896C12.0533 7.68896 13.3965 9.03211 13.3965 10.689Z" fill="#BB428D"/>
<path d="M10.3965 23.689L9.84178 24.521C10.1777 24.7449 10.6153 24.7449 10.9512 24.521L10.3965 23.689ZM16.7604 4.325L16.0533 5.03211L16.0533 5.03211L16.7604 4.325ZM4.03252 4.325L4.73963 5.03211L4.73963 5.03211L4.03252 4.325ZM18.3965 10.689C18.3965 13.787 16.3807 16.7932 14.1705 19.1262C13.0859 20.2711 11.9978 21.2084 11.1798 21.8598C10.7716 22.1849 10.4327 22.4371 10.1977 22.6068C10.0803 22.6916 9.989 22.7557 9.92819 22.7978C9.89779 22.8188 9.87502 22.8344 9.86044 22.8443C9.85315 22.8493 9.8479 22.8528 9.84477 22.8549C9.8432 22.856 9.84216 22.8567 9.84166 22.857C9.84141 22.8572 9.8413 22.8572 9.84132 22.8572C9.84133 22.8572 9.84144 22.8571 9.84145 22.8571C9.8416 22.857 9.84178 22.8569 10.3965 23.689C10.9512 24.521 10.9514 24.5208 10.9517 24.5207C10.9519 24.5206 10.9522 24.5203 10.9525 24.5202C10.953 24.5198 10.9537 24.5193 10.9546 24.5187C10.9563 24.5176 10.9585 24.5161 10.9612 24.5143C10.9668 24.5106 10.9744 24.5054 10.9842 24.4988C11.0036 24.4855 11.0314 24.4666 11.0669 24.442C11.138 24.3928 11.24 24.3211 11.3687 24.2282C11.6259 24.0424 11.9901 23.7712 12.4257 23.4244C13.2952 22.732 14.4571 21.7318 15.6224 20.5017C17.9122 18.0847 20.3965 14.5909 20.3965 10.689H18.3965ZM16.0533 5.03211C17.5536 6.5324 18.3965 8.56723 18.3965 10.689H20.3965C20.3965 8.0368 19.3429 5.49326 17.4676 3.6179L16.0533 5.03211ZM10.3965 2.68896C12.5182 2.68896 14.553 3.53182 16.0533 5.03211L17.4676 3.6179C15.5922 1.74253 13.0486 0.688965 10.3965 0.688965V2.68896ZM4.73963 5.03211C6.23992 3.53182 8.27475 2.68896 10.3965 2.68896V0.688965C7.74432 0.688965 5.20078 1.74253 3.32542 3.6179L4.73963 5.03211ZM2.39648 10.689C2.39648 8.56723 3.23934 6.5324 4.73963 5.03211L3.32542 3.6179C1.45005 5.49326 0.396484 8.0368 0.396484 10.689H2.39648ZM10.3965 23.689C10.9512 22.8569 10.9514 22.857 10.9515 22.8571C10.9515 22.8571 10.9516 22.8572 10.9517 22.8572C10.9517 22.8572 10.9516 22.8572 10.9513 22.857C10.9508 22.8567 10.9498 22.856 10.9482 22.8549C10.9451 22.8528 10.9398 22.8493 10.9325 22.8443C10.9179 22.8344 10.8952 22.8188 10.8648 22.7978C10.804 22.7557 10.7127 22.6916 10.5953 22.6068C10.3603 22.4371 10.0214 22.1849 9.61316 21.8598C8.79515 21.2084 7.7071 20.2711 6.62244 19.1262C4.41222 16.7932 2.39648 13.787 2.39648 10.689H0.396484C0.396484 14.5909 2.88075 18.0847 5.17053 20.5017C6.33587 21.7318 7.49782 22.732 8.36731 23.4244C8.80285 23.7712 9.16703 24.0424 9.42428 24.2282C9.55295 24.3211 9.65501 24.3928 9.72604 24.442C9.76156 24.4666 9.78933 24.4855 9.8088 24.4988C9.81854 24.5054 9.8262 24.5106 9.83172 24.5143C9.83448 24.5161 9.8367 24.5176 9.83838 24.5187C9.83922 24.5193 9.83993 24.5198 9.8405 24.5202C9.84078 24.5203 9.8411 24.5206 9.84124 24.5207C9.84153 24.5208 9.84178 24.521 10.3965 23.689ZM10.3965 14.689C12.6056 14.689 14.3965 12.8981 14.3965 10.689H12.3965C12.3965 11.7935 11.5011 12.689 10.3965 12.689V14.689ZM6.39648 10.689C6.39648 12.8981 8.18735 14.689 10.3965 14.689V12.689C9.29191 12.689 8.39648 11.7935 8.39648 10.689H6.39648ZM10.3965 6.68896C8.18735 6.68896 6.39648 8.47983 6.39648 10.689H8.39648C8.39648 9.5844 9.29191 8.68896 10.3965 8.68896V6.68896ZM14.3965 10.689C14.3965 8.47983 12.6056 6.68896 10.3965 6.68896V8.68896C11.5011 8.68896 12.3965 9.5844 12.3965 10.689H14.3965Z" fill="white"/>
<path d="M19.3965 10.689C19.3965 17.689 10.3965 23.689 10.3965 23.689C10.3965 23.689 1.39648 17.689 1.39648 10.689C1.39648 8.30202 2.3447 6.01283 4.03252 4.325C5.72035 2.63718 8.00954 1.68896 10.3965 1.68896C12.7834 1.68896 15.0726 2.63718 16.7604 4.325C18.4483 6.01283 19.3965 8.30202 19.3965 10.689Z" stroke="white" stroke-width="2" stroke-linecap="round" stroke-linejoin="round"/>
<path d="M10.3965 13.689C12.0533 13.689 13.3965 12.3458 13.3965 10.689C13.3965 9.03211 12.0533 7.68896 10.3965 7.68896C8.73963 7.68896 7.39648 9.03211 7.39648 10.689C7.39648 12.3458 8.73963 13.689 10.3965 13.689Z" stroke="white" stroke-width="2" stroke-linecap="round" stroke-linejoin="round"/>
</svg>
