<svg width="12" height="9" viewBox="0 0 12 9" fill="none" xmlns="http://www.w3.org/2000/svg">
<path d="M8.49663 3.39942L8.01251 3.52442C8.06951 3.74518 8.26864 3.89942 8.49663 3.89942V3.39942ZM10.4144 3.98507L10.7679 3.63152L10.7679 3.63152L10.4144 3.98507ZM10.4144 6.81281L10.7679 7.16637L10.7679 7.16637L10.4144 6.81281ZM6.80613 7.39846L6.42837 7.0709C6.30011 7.21882 6.26998 7.42799 6.35128 7.60609C6.43258 7.78419 6.61035 7.89846 6.80613 7.89846V7.39846ZM7.16034 6.85638L7.6118 7.07127L7.6118 7.07127L7.16034 6.85638ZM7.38657 5.55661L6.88897 5.60556L6.88897 5.60556L7.38657 5.55661ZM6.91183 4.33021L6.5119 4.6303L6.5119 4.6303L6.91183 4.33021ZM5.87993 3.54866L5.70155 4.01576L5.70155 4.01576L5.87993 3.54866ZM3.46895 4.06058L3.11871 3.70374L3.11871 3.70374L3.46895 4.06058ZM2.82016 5.19899V5.69899C3.04954 5.69899 3.2495 5.54291 3.30519 5.32039L2.82016 5.19899ZM2.361 5.20204L1.88619 5.35877C1.95764 5.57523 2.16645 5.71596 2.3939 5.70096L2.361 5.20204ZM2.21611 3.87625L1.71867 3.82577L1.71867 3.82577L2.21611 3.87625ZM2.86905 2.24106L2.47365 1.93502L2.47365 1.93502L2.86905 2.24106ZM4.28831 1.19899L4.11472 0.730091L4.11472 0.730091L4.28831 1.19899ZM6.04399 1.0657L6.1448 0.575964L6.1448 0.575964L6.04399 1.0657ZM7.60431 1.88155L7.94897 1.51932L7.94897 1.51932L7.60431 1.88155ZM9.00051 2.89942H8.49663V3.89942H9.00051V2.89942ZM10.7679 3.63152C10.2992 3.16276 9.66343 2.89942 9.00051 2.89942V3.89942C9.39821 3.89942 9.77962 4.05741 10.0608 4.33862L10.7679 3.63152ZM11.5 5.39894C11.5 4.73603 11.2367 4.10027 10.7679 3.63152L10.0608 4.33862C10.342 4.61984 10.5 5.00124 10.5 5.39894H11.5ZM10.7679 7.16637C11.2367 6.69762 11.5 6.06185 11.5 5.39894H10.5C10.5 5.79664 10.342 6.17805 10.0608 6.45926L10.7679 7.16637ZM9.00051 7.89846C9.66343 7.89846 10.2992 7.63512 10.7679 7.16637L10.0608 6.45926C9.77962 6.74047 9.39821 6.89846 9.00051 6.89846V7.89846ZM6.80613 7.89846H9.00051V6.89846H6.80613V7.89846ZM6.70888 6.64148C6.63419 6.79837 6.53956 6.94267 6.42837 7.0709L7.1839 7.72602C7.35433 7.52946 7.49849 7.30934 7.6118 7.07127L6.70888 6.64148ZM6.88897 5.60556C6.92405 5.96214 6.86134 6.32118 6.70888 6.64148L7.6118 7.07127C7.8429 6.58577 7.93695 6.04419 7.88417 5.50766L6.88897 5.60556ZM6.5119 4.6303C6.72267 4.91119 6.8539 5.249 6.88897 5.60556L7.88417 5.50766C7.83139 4.9711 7.63367 4.45913 7.31177 4.03012L6.5119 4.6303ZM5.70155 4.01576C6.02002 4.13737 6.30123 4.34954 6.5119 4.6303L7.31177 4.03012C6.98977 3.60099 6.55597 3.27161 6.0583 3.08156L5.70155 4.01576ZM4.70726 3.93779C5.03897 3.86736 5.38324 3.89421 5.70155 4.01576L6.0583 3.08156C5.56049 2.89146 5.02024 2.84904 4.49956 2.9596L4.70726 3.93779ZM3.81919 4.41742C4.06753 4.17366 4.37546 4.00824 4.70726 3.93779L4.49956 2.9596C3.97898 3.07013 3.50082 3.32869 3.11871 3.70374L3.81919 4.41742ZM3.30519 5.32039C3.39194 4.97385 3.57071 4.6613 3.81919 4.41742L3.11871 3.70374C2.73672 4.07867 2.46594 4.55493 2.33512 5.07758L3.30519 5.32039ZM2.4538 5.69899H2.82016V4.69899H2.4538V5.69899ZM2.3939 5.70096C2.41377 5.69965 2.43375 5.69899 2.4538 5.69899V4.69899C2.41175 4.69899 2.36983 4.70037 2.3281 4.70313L2.3939 5.70096ZM1.71867 3.82577C1.666 4.34475 1.72387 4.86701 1.88619 5.35877L2.8358 5.04532C2.71735 4.68649 2.67513 4.3054 2.71356 3.92673L1.71867 3.82577ZM2.47365 1.93502C2.0501 2.48225 1.78853 3.13731 1.71867 3.82577L2.71356 3.92673C2.76453 3.42438 2.95539 2.94639 3.26445 2.54709L2.47365 1.93502ZM4.11472 0.730091C3.46577 0.970333 2.89721 1.38779 2.47365 1.93502L3.26445 2.54709C3.57351 2.1478 3.98837 1.84319 4.4619 1.66789L4.11472 0.730091ZM6.1448 0.575964C5.46701 0.43645 4.76368 0.489848 4.11472 0.730091L4.4619 1.66789C4.93542 1.49259 5.44863 1.45363 5.94319 1.55543L6.1448 0.575964ZM7.94897 1.51932C7.44765 1.04231 6.82259 0.715478 6.1448 0.575964L5.94319 1.55543C6.43775 1.65723 6.89385 1.89571 7.25965 2.24377L7.94897 1.51932ZM8.98076 3.27442C8.80776 2.6044 8.45029 1.99633 7.94897 1.51932L7.25965 2.24377C7.62544 2.59184 7.88628 3.03553 8.01251 3.52442L8.98076 3.27442Z" fill="white"/>
<path d="M2.45378 5.19898H2.82014C2.92892 4.76438 3.1537 4.36998 3.46893 4.06057C3.78416 3.75117 4.1772 3.53918 4.60339 3.44869C5.02959 3.35819 5.47184 3.39283 5.87991 3.54866C6.28797 3.70448 6.64548 3.97526 6.91182 4.3302C7.17815 4.68515 7.34262 5.11004 7.38655 5.5566C7.43048 6.00315 7.3521 6.45347 7.16032 6.85637C6.96854 7.25927 6.67105 7.5986 6.30165 7.83581C5.93225 8.07302 5.50575 8.19859 5.07062 8.19826H2.45378C2.06821 8.19826 1.69843 8.04026 1.42579 7.75902C1.15315 7.47779 0.999981 7.09635 0.999981 6.69862C0.999981 6.30089 1.15315 5.91945 1.42579 5.63821C1.69843 5.35698 2.06821 5.19898 2.45378 5.19898Z" stroke="white" stroke-linecap="round" stroke-linejoin="round"/>
</svg>
